<svg width="24" height="24" viewBox="0 0 24 24" fill="none" xmlns="http://www.w3.org/2000/svg">
<circle cx="12" cy="12" r="12" fill="white"/>
<path d="M15.7689 5C15.7689 5.84129 15.7689 6.68382 15.7689 7.52511C15.2842 7.52137 14.7942 7.47906 14.315 7.52386C13.5078 7.59729 13.0872 7.99055 12.9878 8.7273C12.9374 9.10314 12.9592 9.48645 12.9333 9.86602C12.9197 10.0664 13.0082 10.1236 13.2192 10.1211C13.9652 10.1124 14.7125 10.1211 15.4585 10.1149C15.6572 10.1137 15.7185 10.1622 15.6736 10.3526C15.5157 11.0247 15.3673 11.6992 15.2311 12.3762C15.1944 12.5567 15.11 12.6089 14.9194 12.6052C14.3817 12.5965 13.8426 12.6015 13.3049 12.6015C12.936 12.6015 12.9347 12.6015 12.9347 12.9412C12.9347 14.7744 12.9306 16.6075 12.9388 18.4419C12.9401 18.651 12.8734 18.717 12.6434 18.7132C11.9573 18.7008 11.2712 18.7095 10.5865 18.7095C10.2149 18.7095 10.2149 18.7095 10.2149 18.3735C10.2149 16.5403 10.2108 14.7072 10.2203 12.8728C10.2217 12.6487 10.1454 12.5915 9.91131 12.5965C9.36544 12.6102 8.81684 12.594 8.27097 12.6052C8.06406 12.6089 7.99736 12.543 8.00008 12.3588C8.00825 11.6917 8.00825 11.0259 8.00008 10.3589C7.99736 10.1759 8.06134 10.1075 8.27097 10.1124C8.83454 10.1236 9.39947 10.1099 9.96304 10.1199C10.1523 10.1224 10.2271 10.0751 10.2176 9.8934C10.2026 9.58477 10.1917 9.27239 10.219 8.965C10.2693 8.39875 10.2829 7.82005 10.4299 7.27247C10.7757 5.98316 11.8797 4.99129 13.633 5.01369C14.3463 5.02365 15.0583 5.00622 15.7689 5Z" fill="black"/>
</svg>
