<svg width="64" height="53" viewBox="0 0 64 53" fill="none" xmlns="http://www.w3.org/2000/svg">
<path d="M0 25.6892C2.325 22.5383 4.635 19.378 6.98375 16.2421C7.8525 15.0815 9.34875 15.0653 10.22 16.2167C12.4788 19.1998 14.7125 22.1992 16.9125 25.2194C17.8588 26.5178 16.9675 27.9885 15.2725 28.0371C15.2513 28.0383 15.2312 28.0371 15.21 28.0383C13.6613 28.0695 13.6613 28.0695 13.935 29.4986C15.2288 36.2762 21.545 42.0446 28.9513 43.0155C37.0025 44.0708 43.295 41.3816 47.745 35.0646C48.05 34.6318 48.21 34.6237 48.51 35.0449C49.1975 36.01 49.9338 36.9462 50.6188 37.9124C51.7088 39.4503 53.2188 40.3309 55.2075 40.4431C55.8162 40.4778 55.7463 40.6641 55.48 41.0194C51.5788 46.2081 46.3812 49.7433 39.8162 51.523C37.8937 52.0437 35.9313 52.3735 33.9263 52.4638C33.825 52.4684 33.7262 52.5101 33.6263 52.5344C32.5425 52.5344 31.46 52.5344 30.3762 52.5344C30.235 52.5078 30.095 52.4661 29.9525 52.458C27.21 52.3053 24.5588 51.7568 21.9963 50.8542C16.8237 49.0316 12.5863 46.0542 9.26875 41.9509C6.1925 38.145 4.395 33.8797 3.8175 29.1561C3.6575 27.852 3.9425 28.0175 2.4725 28.0522C1.36625 28.0776 0.50375 27.8115 0 26.8464C0 26.4611 0 26.0746 0 25.6892Z" fill="#F7A501"/>
<path d="M63.9999 26.8463C61.6874 29.981 59.3886 33.125 57.0549 36.2471C56.1299 37.4852 54.6349 37.469 53.6986 36.2239C51.4986 33.2975 49.3261 30.3525 47.1411 27.4156C46.6799 26.7953 46.5524 26.1427 46.9399 25.4553C47.3286 24.7657 47.9824 24.4961 48.7961 24.4972C50.5586 24.4995 50.3824 24.6326 50.0424 23.0369C49.1261 18.7426 46.7486 15.2434 42.9549 12.6177C39.2499 10.0535 35.0349 8.9368 30.4486 9.31982C24.4111 9.82318 19.7161 12.4986 16.4124 17.2209C15.8661 18.002 15.8886 18.0136 15.3224 17.2452C14.6761 16.3704 14.0099 15.5072 13.3824 14.6208C12.2936 13.0818 10.7824 12.2035 8.79239 12.0912C8.17739 12.0565 8.2599 11.8644 8.52365 11.5138C12.4249 6.32507 17.6211 2.78993 24.1874 1.01136C26.1099 0.490638 28.0724 0.160846 30.0774 0.0705871C30.1786 0.0659585 30.2774 0.0243005 30.3774 0C31.4611 0 32.5436 0 33.6274 0C33.7686 0.0266148 33.9086 0.0682728 34.0524 0.076373C36.7949 0.230276 39.4461 0.777616 42.0086 1.68021C47.1786 3.50274 51.4161 6.48013 54.7324 10.5834C57.8086 14.3894 59.6061 18.6547 60.1837 23.3782C60.3437 24.6824 60.0587 24.5169 61.5287 24.4822C62.6324 24.4567 63.4961 24.7229 63.9986 25.6879C63.9999 26.0744 63.9999 26.4609 63.9999 26.8463Z" fill="#F7A501"/>
</svg>
