<svg width="60" height="56" viewBox="0 0 60 56" fill="none" xmlns="http://www.w3.org/2000/svg">
<path d="M60 15.3125C60 23.625 60 31.9375 60 40.25C58.7766 42.3719 56.7141 43.4481 54.3797 44.1744C51.7078 45.0056 48.9609 45.5219 46.1438 45.5131C44.1938 45.5044 43.2891 46.1081 43.5984 48.0594C44.0063 50.6275 42.7172 52.4038 40.275 53.4669C39.1547 53.9569 37.9641 54.2981 36.8062 54.7094C34.4625 55.5363 31.9125 55.3569 29.5312 56C27.1875 56 24.8438 56 22.5 56C21.7219 55.5581 20.8453 55.6762 20.0016 55.6019C17.1984 55.3481 14.475 54.7706 11.9203 53.655C10.4953 53.0337 8.94844 52.2681 8.57344 50.7981C7.79063 47.74 8.10469 44.5944 8.35312 41.4881C8.49375 39.7031 10.2609 39.0119 11.6344 37.8613C7.24219 36.8331 2.72813 36.5619 0 32.8125C0 23.625 0 14.4375 0 5.25C1.55156 3.12375 3.82969 2.06938 6.38438 1.32562C8.89688 0.595 11.5406 0.62125 14.0625 0C16.5609 0 19.0641 0 21.5625 0C23.9906 0.433125 26.4656 0.713125 28.8375 1.33438C34.1531 2.72563 36.075 4.45375 35.4844 8.98625C35.3203 10.2419 35.8734 10.675 37.2094 10.5C40.6266 10.0494 44.0625 10.1062 47.4656 10.5044C52.0875 11.0513 56.7797 11.5456 60 15.3125ZM25.9688 45.8631C30.4641 45.6706 34.8937 45.3862 39.0047 43.5444C39.7594 43.2075 40.7531 42.9406 40.7203 41.9694C40.6922 41.02 39.6984 40.7575 38.9438 40.425C34.8984 38.6488 30.5531 38.2025 26.1703 38.1894C21.5531 38.1763 16.9734 38.5656 12.7172 40.4994C12.0141 40.8187 11.1609 41.0856 11.1141 41.9212C11.0578 42.91 12.0188 43.1769 12.7781 43.5225C16.9641 45.4256 21.4781 45.6706 25.9688 45.8631ZM42.3469 20.3394C46.8937 20.2344 51.3984 19.9325 55.5703 17.99C56.2734 17.6619 57.1172 17.3687 57.1078 16.5244C57.0938 15.68 56.2031 15.435 55.5328 15.0763C53.7375 14.1225 51.7547 13.7069 49.7578 13.3831C42.7172 12.2413 35.775 12.3506 29.0859 15.0369C28.3687 15.3256 27.4875 15.6669 27.4359 16.4456C27.375 17.3775 28.3359 17.6969 29.1141 18.0512C33.3 19.9675 37.8094 20.2388 42.3469 20.3394ZM17.7609 10.1325C22.3078 10.1412 26.7656 9.69938 30.9469 7.85313C31.6594 7.53813 32.5266 7.20562 32.5641 6.42687C32.6063 5.50375 31.6172 5.21938 30.8766 4.83437C29.2219 3.9725 27.4031 3.55687 25.5656 3.25937C18.4828 2.12188 11.4797 2.09125 4.71563 4.79063C3.9375 5.10125 2.93438 5.39 2.89219 6.29125C2.84063 7.34562 3.95625 7.595 4.78594 7.95813C8.90156 9.7475 13.2937 10.1369 17.7609 10.1325ZM26.4937 53.4144C30.0609 53.4844 34.0266 52.9156 37.9172 51.6775C40.2891 50.9206 41.2125 49.5819 40.9172 47.2587C40.7672 46.0687 40.5984 45.7931 39.2625 46.2219C30.2578 49.1181 21.2437 49.1575 12.2531 46.1081C11.7984 45.955 11.2781 45.5219 10.9031 46.2831C10.1766 47.7619 11.1328 50.4219 12.75 51.1437C16.9312 53.0163 21.4125 53.4275 26.4937 53.4144ZM27.3937 20.3656C26.9484 24.745 27.0047 25.1694 30.6234 26.2937C38.3813 28.7 46.2469 28.7044 54 26.2631C57.5719 25.1388 57.75 24.4563 56.9859 20.4225C47.1188 23.7694 37.2516 23.7563 27.3937 20.3656ZM57.0047 28.1006C56.2453 27.9519 55.6922 28.4594 55.0453 28.6519C54.3797 28.8531 53.7281 29.1156 53.0531 29.2644C44.8406 31.0844 36.6984 31.1675 28.6875 28.3281C28.1812 28.1488 27.5906 27.6106 27.2578 28.5775C26.5406 30.6688 27.3891 32.7469 29.6438 33.5387C37.7484 36.3869 45.975 36.3475 54.1359 33.8319C57.5859 32.7731 57.7031 32.1738 57.0047 28.1006ZM17.4703 26.6656C18.2484 26.6656 19.0312 26.6831 19.8094 26.6612C24.5672 26.5344 24.4688 26.53 24.5578 22.0588C24.5953 20.2256 23.9391 19.9456 22.1484 20.0813C15.975 20.545 9.83906 20.4312 4.00313 18.0731C3.62812 17.92 3.17812 17.605 2.8125 18.1781C1.83281 19.7225 3.15 23.8 4.92656 24.5569C8.91094 26.2631 13.1578 26.6744 17.4703 26.6656ZM2.76094 26.5781C2.76094 27.8119 2.8875 28.77 2.7375 29.6888C2.34844 32.0075 3.5625 33.1319 5.76094 33.8581C10.1766 35.3194 14.7187 35.7569 19.35 35.525C25.6594 35.21 24.3375 35.9275 24.5344 30.2575C24.5766 29.0325 24.0375 28.7744 22.8609 28.9187C16.0969 29.7281 9.49219 29.1856 2.76094 26.5781ZM2.8875 10.1544C2.53594 14.7787 2.63437 15.0938 6.44531 16.2663C11.9531 17.9638 17.625 18.1125 23.3484 17.465C24.0844 17.3819 24.4688 17.0931 24.5672 16.4062C24.8625 14.4331 26.3391 13.405 28.125 12.6788C29.1938 12.2456 30.3047 11.9044 31.3922 11.5106C31.9312 11.3181 32.9203 11.3575 32.6437 10.5612C32.3344 9.66437 31.6313 10.4694 31.1438 10.5831C30.3188 10.7756 29.55 11.1825 28.725 11.3794C20.0344 13.4444 11.4516 13.2562 2.8875 10.1544ZM40.725 38.1413C42.4406 39.5631 43.7297 40.6219 43.65 42.4375C43.6078 43.3519 44.3719 43.1856 44.9906 43.12C47.4656 42.8531 49.9359 42.6781 52.3688 42.0569C57.0891 40.8494 57.6047 40.25 57.0656 35.5119C52.05 37.7038 46.7391 38.185 40.725 38.1413Z" fill="#F7A501"/>
</svg>
