<svg width="24" height="24" viewBox="0 0 24 24" fill="none" xmlns="http://www.w3.org/2000/svg">
<circle cx="12" cy="12" r="12" fill="white"/>
<g clip-path="url(#clip0_22_5187)">
<path d="M19.5 12.0271C19.4906 16.1834 16.1424 19.5058 11.9686 19.5C7.84467 19.4942 4.43292 16.091 4.50075 11.957C4.57002 7.7754 7.79055 4.4415 12.1296 4.50072C16.5133 4.56065 19.5145 8.14222 19.5 12.0271Z" fill="#010101"/>
<path d="M10.6012 15.4108C10.6388 14.8577 10.6799 14.2858 10.7167 13.7132C10.7268 13.5529 10.8257 13.4568 10.9339 13.3579C11.9795 12.4026 13.0237 11.4451 14.0678 10.4876C14.1349 10.4255 14.2309 10.3865 14.2511 10.2645C14.0909 10.1612 13.9856 10.2969 13.8795 10.3634C12.564 11.1873 11.2507 12.0126 9.94241 12.8474C9.76706 12.9593 9.61625 12.9896 9.41781 12.9225C8.92206 12.7542 8.4191 12.6084 7.91975 12.4502C7.76605 12.4018 7.54308 12.3982 7.54163 12.1888C7.54019 11.9838 7.74657 11.9108 7.91326 11.8458C8.88815 11.4653 9.86448 11.0884 10.8408 10.7107C12.2054 10.1836 13.5692 9.65501 14.9352 9.13366C15.138 9.05639 15.3523 8.91558 15.5695 9.10694C15.7795 9.29107 15.7073 9.52431 15.6604 9.74238C15.2578 11.6328 14.8529 13.5225 14.4416 15.4108C14.3247 15.9473 14.0888 16.0318 13.6377 15.7054C13.1333 15.3408 12.6239 14.9819 12.1426 14.5883C11.9261 14.4114 11.8179 14.4591 11.6504 14.6345C11.4029 14.8945 11.1295 15.1299 10.8581 15.3653C10.8026 15.4166 10.7254 15.4816 10.6012 15.4108Z" fill="white"/>
</g>
<defs>
<clipPath id="clip0_22_5187">
<rect width="15" height="15" fill="white" transform="translate(4.5 4.5)"/>
</clipPath>
</defs>
</svg>
