<svg width="24" height="24" viewBox="0 0 24 24" fill="none" xmlns="http://www.w3.org/2000/svg">
<circle cx="12" cy="12" r="12" fill="white"/>
<path d="M9.31388 17.2822C9.09554 17.2822 8.87721 17.2822 8.65888 17.2822C8.55251 17.2679 8.44502 17.2484 8.33866 17.2403C7.98709 17.2157 7.63216 17.2198 7.28506 17.1696C6.23259 17.0171 5.24729 16.6773 4.31238 16.2156C4.20602 16.1644 4.10413 16.104 4 16.0477C4.0056 16.0293 4.0112 16.0109 4.01679 15.9924C4.80727 16.0569 5.58431 16.0293 6.34679 15.8143C7.10816 15.5994 7.8169 15.3015 8.48085 14.8234C7.0309 14.6402 5.74106 13.7414 5.64925 12.8826C6.06016 12.8652 6.4722 12.8488 6.88423 12.8314C5.14764 12.3135 4.45682 10.9387 4.56431 10.0369C4.97186 10.1382 5.38277 10.2396 5.79369 10.3419C5.80936 10.3143 5.82392 10.2866 5.83959 10.26C5.20363 9.83317 4.77928 9.27324 4.62253 8.57512C4.4669 7.88006 4.54975 7.20446 4.97522 6.55137C6.65694 8.32944 8.75629 9.33978 11.3539 9.49947C11.327 9.25789 11.2912 9.06032 11.2867 8.86276C11.2587 7.75518 12.0358 6.68445 13.1968 6.22074C14.284 5.78569 15.6097 6.00577 16.4897 6.77453C16.6084 6.87792 16.7237 6.91579 16.8727 6.86666C17.2657 6.73768 17.6609 6.61177 18.0505 6.4746C18.2252 6.41318 18.3898 6.3272 18.6171 6.2279C18.3831 6.89737 17.943 7.34879 17.3888 7.72549C17.4011 7.75006 17.4123 7.7736 17.4246 7.79817C17.9386 7.66612 18.4536 7.53305 19 7.39281C18.9384 7.4747 18.9026 7.54329 18.8477 7.59549C18.4704 7.95274 18.0964 8.31306 17.7034 8.65599C17.5713 8.77063 17.5153 8.87607 17.5019 9.04497C17.4515 9.67758 17.4336 10.3204 17.2892 10.9367C17.0081 12.1333 16.4326 13.2184 15.6142 14.1949C14.3949 15.6485 12.8218 16.6056 10.8713 17.0294C10.3585 17.1399 9.8334 17.1993 9.31388 17.2822Z" fill="black"/>
</svg>
