<svg width="50" height="50" viewBox="0 0 50 50" fill="none" xmlns="http://www.w3.org/2000/svg">
<path d="M23.7016 0C24.5625 0 25.4233 0 26.2842 0C26.7466 0.0416868 27.2093 0.0750362 27.6704 0.127145C30.3743 0.431875 32.9703 1.1318 35.4425 2.27443C39.842 4.30791 43.3601 7.36522 45.992 11.4297C48.1886 14.8222 49.4805 18.5394 49.8799 22.5651C50.0717 24.501 50.0333 26.4315 49.7682 28.357C49.4247 30.8491 48.7293 33.2398 47.67 35.523C46.142 38.8158 43.9946 41.6413 41.2352 43.9971C38.6634 46.1923 35.7614 47.8006 32.5384 48.8277C29.3421 49.8461 26.072 50.1971 22.734 49.8966C20.6791 49.7115 18.678 49.2684 16.729 48.5872C13.4594 47.4446 10.547 45.7025 8.01225 43.3455C4.93434 40.4825 2.70772 37.0579 1.33614 33.0822C0.704131 31.2505 0.290574 29.3708 0.109643 27.4412C0.0721224 27.041 0.0366865 26.6408 0 26.241C0 25.4218 0 24.6027 0 23.7836C0.0100054 23.7223 0.027098 23.6614 0.0291825 23.5997C0.0525284 23.0032 0.115896 22.41 0.193438 21.8184C0.654938 18.2942 1.78096 14.9972 3.64656 11.9716C6.70154 7.01714 10.978 3.53337 16.431 1.49989C18.3912 0.768704 20.4181 0.313068 22.5009 0.11047C22.9011 0.0712844 23.3014 0.0366844 23.7016 0ZM28.8014 36.1858C29.4668 36.1866 29.9996 36.1487 30.5269 36.0582C31.6542 35.8648 32.6689 35.4367 33.4952 34.6205C34.4036 33.7234 34.9022 32.6041 35.2278 31.3947C35.465 30.5139 35.5605 29.6239 35.36 28.7197C35.1015 27.5545 34.389 26.715 33.446 26.0396C33.1975 25.8616 32.9366 25.7032 32.6677 25.5573C32.6277 25.5357 32.5685 25.5181 32.581 25.4573C32.5905 25.4114 32.6418 25.4068 32.6814 25.3952C32.7281 25.3818 32.7748 25.3689 32.8215 25.3547C33.5657 25.1317 34.2523 24.7945 34.7663 24.2013C35.9019 22.8915 36.2484 21.3495 35.9474 19.6724C35.7302 18.461 34.9735 17.5776 34.0071 16.8619C33.0149 16.1265 31.8993 15.6346 30.7425 15.2286C30.5519 15.1615 30.5028 15.0802 30.554 14.8793C30.8917 13.562 31.2165 12.2413 31.5454 10.9219C31.6163 10.6372 31.6129 10.628 31.3249 10.5559C30.6178 10.3796 29.9103 10.2053 29.2033 10.0307C28.9094 9.95814 28.909 9.95772 28.8377 10.2449C28.5171 11.5306 28.194 12.8162 27.8788 14.1031C27.8346 14.2831 27.7634 14.3373 27.5758 14.2886C27.0317 14.1477 26.4831 14.0243 25.9361 13.895C25.5863 13.8125 25.5863 13.8129 25.6756 13.4561C25.9932 12.1838 26.3084 10.9107 26.6307 9.63965C26.6728 9.47332 26.6511 9.38745 26.4664 9.34326C25.7239 9.16651 24.9848 8.97641 24.2439 8.79341C23.9967 8.73213 23.9776 8.74464 23.915 8.99309C23.5898 10.292 23.2655 11.5914 22.9403 12.8904C22.8549 13.2318 22.8528 13.2343 22.5105 13.1497C20.8809 12.7457 19.2517 12.3397 17.622 11.9349C17.3285 11.862 17.326 11.8636 17.2543 12.15C17.0759 12.8637 16.8946 13.5766 16.7203 14.2911C16.5956 14.8026 16.541 14.7371 17.0713 14.8655C17.6846 15.0139 18.3082 15.1273 18.8998 15.3545C19.6673 15.6492 20.0054 16.3108 19.8074 17.1062C19.3746 18.8445 18.9419 20.5833 18.5092 22.3216C18.2278 23.4526 17.946 24.5839 17.6641 25.7149C17.3873 26.8259 17.1118 27.9372 16.8316 29.0469C16.6669 29.6997 16.2184 29.9928 15.5601 29.8769C14.9581 29.7706 14.3732 29.5901 13.7829 29.435C13.5986 29.3867 13.5127 29.4154 13.436 29.5968C13.0692 30.4664 12.6889 31.3301 12.3125 32.1955C12.1899 32.4765 12.1908 32.4807 12.4855 32.5549C14.1406 32.9722 15.7948 33.3932 17.4519 33.803C17.6604 33.8547 17.6967 33.9372 17.6462 34.1361C17.3044 35.4809 16.9759 36.8294 16.6348 38.1743C16.5869 38.3627 16.6202 38.4469 16.8216 38.494C17.5445 38.6628 18.2632 38.8496 18.9836 39.0297C19.2821 39.1043 19.2821 39.1039 19.3567 38.8033C19.6794 37.5035 20.0021 36.2037 20.3252 34.9043C20.4019 34.5963 20.4023 34.5963 20.7175 34.678C21.2615 34.8193 21.8051 34.961 22.3492 35.1028C22.6143 35.172 22.6193 35.1786 22.5535 35.4421C22.2245 36.7619 21.8993 38.0825 21.5612 39.3998C21.5079 39.6074 21.5608 39.6779 21.7622 39.725C22.4918 39.8955 23.2171 40.0843 23.9446 40.2653C24.2077 40.3307 24.2135 40.3265 24.2806 40.0577C24.6141 38.7249 24.9464 37.3918 25.2799 36.0591C25.3437 35.8044 25.3641 35.7919 25.6243 35.839C26.7178 36.037 27.8184 36.1708 28.8014 36.1858Z" fill="#F7A501"/>
</svg>
