<svg width="24" height="24" viewBox="0 0 24 24" fill="none" xmlns="http://www.w3.org/2000/svg">
<circle cx="12" cy="12" r="12" fill="white"/>
<path d="M11.4955 7.00177C13.2958 7.00177 11.8456 7.00177 13.2958 7.00177C16.3463 7.00177 16.9906 7.17737 17.1617 7.2069C18.2051 7.38729 18.7376 7.94123 18.8843 9.03554C18.9463 9.4953 18.9777 9.95984 18.9847 10.4228C18.9996 11.4205 19.0118 12.4191 18.9803 13.416C18.9629 13.9532 18.8887 14.4943 18.776 15.0219C18.6163 15.7658 17.9772 16.2775 17.1163 16.3637C16.2808 16.4467 15.4418 16.5082 14.6019 16.5401C12.2621 16.6279 9.92141 16.6127 7.58246 16.5002C7.0595 16.4754 6.53653 16.4267 6.01618 16.3653C5.02787 16.2488 4.41847 15.7164 4.25084 14.816C4.01599 13.5493 3.95487 12.2706 4.03083 10.9911C4.07885 10.1873 4.15393 9.38036 4.30061 8.58776C4.44641 7.79596 5.08986 7.28353 5.96292 7.19573C6.80631 7.11112 7.65493 7.04647 8.50267 7.02092C9.50146 6.99139 10.4968 7.00177 11.4955 7.00177ZM10.0436 9.70522C10.0436 11.1052 10.0436 12.4542 10.0436 13.8542C11.369 13.1574 12.6585 12.4789 13.9881 11.7797C12.6515 11.0765 11.3655 10.4004 10.0436 9.70522Z" fill="black"/>
</svg>
