<svg width="140" height="30" viewBox="0 0 140 30" fill="none" xmlns="http://www.w3.org/2000/svg">
<path d="M57.1839 18.7432C57.1839 20.3692 56.7856 21.5187 55.989 22.1959C55.0906 22.9483 53.5016 23.3245 51.2176 23.3245H40.8317V6.90118H50.8702C53.116 6.90118 54.6499 7.21469 55.4635 7.83751C56.2771 8.46033 56.6839 9.56804 56.6839 11.1606C56.6839 12.3059 56.4847 13.142 56.0864 13.6686C55.6881 14.212 54.9381 14.6008 53.8364 14.8307C55.1711 14.977 56.0864 15.3908 56.5907 16.0638C56.9848 16.603 57.1839 17.4975 57.1839 18.7432ZM52.8363 11.4783C52.8363 10.7217 52.6923 10.2368 52.4083 10.0237C52.0439 9.74778 51.2303 9.60984 49.9676 9.60984H44.6496V13.769H49.9125C51.0439 13.769 51.8193 13.6059 52.2346 13.2757C52.6372 12.9664 52.8363 12.3645 52.8363 11.4783ZM53.3067 18.4966C53.3067 17.5644 53.1329 16.9374 52.7812 16.6281C52.4168 16.3313 51.6838 16.185 50.5905 16.185H44.6539V20.6451H50.3913C51.51 20.6451 52.2728 20.4988 52.688 20.202C53.099 19.9178 53.3067 19.3493 53.3067 18.4966Z" fill="white"/>
<path d="M73.4852 6.90118H59.7009V9.61402H73.4852V6.90118Z" fill="#F7A501"/>
<path d="M73.4852 23.3245V20.6409H63.5443V16.2853H73.4852V13.723H59.7009V23.3245H73.4852Z" fill="white"/>
<path d="M92.1765 12.469C92.1765 14.5715 91.7358 16.022 90.8544 16.8287C89.973 17.6313 88.3247 18.0326 85.9136 18.0326H80.0448V23.3245H76.1972V6.90118H84.9559C87.6382 6.90118 89.4307 7.17289 90.329 7.71211C91.5621 8.44779 92.1765 10.0362 92.1765 12.469ZM88.3798 12.6111C88.3798 11.3947 88.1637 10.5921 87.7314 10.1992C87.2992 9.8063 86.3839 9.60984 84.9856 9.60984H80.0448V15.3197H84.8881C86.4856 15.3197 87.5069 15.0815 87.9603 14.605C88.2399 14.3082 88.3798 13.6436 88.3798 12.6111Z" fill="white"/>
<path d="M101.122 17.46H95.0071V14.9979H101.122V17.46Z" fill="white"/>
<path d="M120.304 23.3245H105.228V20.0976C105.228 18.1121 105.944 16.7201 107.372 15.9134C108.491 15.2864 110.173 14.977 112.419 14.977C114.266 14.977 115.474 14.7304 116.037 14.2455C116.453 13.8819 116.66 13.1755 116.66 12.1221C116.66 11.0562 116.436 10.3414 115.991 9.98192C115.474 9.55138 114.465 9.3382 112.969 9.3382C111.19 9.3382 110.084 9.49286 109.647 9.80636C109.113 10.2035 108.851 11.1899 108.851 12.7658H105.232C105.232 10.4668 105.63 8.93691 106.431 8.18451C107.448 7.23147 109.626 6.75494 112.969 6.75494C115.766 6.75494 117.703 7.14369 118.783 7.91699C119.8 8.64013 120.309 9.92758 120.309 11.7835C120.309 14.0324 119.775 15.4912 118.711 16.1642C118.131 16.5236 116.465 16.9207 113.72 17.3471C112.656 17.5101 111.601 17.6773 110.55 17.8404C109.448 18.1497 108.897 18.7307 108.897 19.5834L108.846 20.7664H120.304V23.3245Z" fill="white"/>
<path d="M140 16.8747C140 19.203 139.614 20.7956 138.847 21.6483C137.75 22.8647 135.513 23.475 132.135 23.475C128.805 23.475 126.555 23.0653 125.394 22.2419C124.161 21.3724 123.546 19.6879 123.546 17.1924V13.5976C123.546 10.9391 123.961 9.19186 124.788 8.35586C125.851 7.28578 128.19 6.75073 131.805 6.75073C135.004 6.75073 137.169 7.21053 138.297 8.13432C139.432 9.06646 139.996 10.914 139.996 13.6728V16.8747H140ZM136.407 17.4683V13.0333C136.407 11.4909 136.157 10.5044 135.657 10.0738C135.093 9.58061 133.801 9.33398 131.788 9.33398C129.644 9.33398 128.33 9.55553 127.843 10.0028C127.36 10.4459 127.118 11.5578 127.118 13.3301V17.5143C127.118 18.9146 127.36 19.8008 127.843 20.177C128.44 20.6493 129.856 20.8876 132.084 20.8876C133.949 20.8876 135.14 20.6744 135.657 20.248C136.157 19.8258 136.407 18.8979 136.407 17.4683Z" fill="white"/>
<path d="M15.2039 0C6.80953 0 0 6.71729 0 14.9979C0 23.2827 6.80953 30 15.2039 30C23.5982 30 30.4119 23.2827 30.4119 14.9979C30.4119 6.71729 23.6024 0 15.2039 0ZM13.547 7.7832L15.2081 6.78835L18.1616 8.56068L21.6151 10.634C20.526 11.5201 18.9836 11.5954 17.8099 10.8263L16.3098 9.84395L16.3225 9.83559L15.2293 9.1208L12.619 10.8304C11.4453 11.5996 9.8986 11.5201 8.81383 10.6382L13.547 7.7832ZM18.4582 12.9999L15.2039 15.6291L11.9495 12.9999L15.2039 10.7427L18.4582 12.9999ZM7.6782 15.7879L4.85184 12.9999C6.3985 12.0719 8.38161 12.2433 9.74182 13.422L10.3435 13.9445L10.3605 13.932L13.8352 16.9458L11.102 19.1696L7.6782 15.7879ZM15.2039 23.2116L12.4834 20.5281L15.2039 18.1664L17.9285 20.5281L15.2039 23.2116ZM25.5559 12.9999L22.7295 15.7879L19.3014 19.1696L16.5683 16.9458L20.043 13.932L20.0599 13.9445L20.6659 13.422C22.0303 12.2433 24.0092 12.0719 25.5559 12.9999Z" fill="#F7A501"/>
</svg>
